<?xml version="1.0" encoding="UTF-8"?>
<svg xmlns="http://www.w3.org/2000/svg" xmlns:xlink="http://www.w3.org/1999/xlink" viewBox="0 0 17 17" width="17px" height="17px">
<g id="surface22292099">
<path style=" stroke:none;fill-rule:nonzero;fill:rgb(100%,100%,100%);fill-opacity:1;" d="M 0.339844 3.058594 C 0.152344 3.058594 0 3.210938 0 3.398438 L 0 8.199219 C 0 10.292969 1.59375 12.113281 3.683594 12.234375 C 5.6875 12.347656 7.394531 10.941406 7.75 9.0625 C 7.945312 9.324219 8.140625 9.566406 8.339844 9.789062 L 7.140625 14.882812 C 7.117188 14.984375 7.140625 15.089844 7.207031 15.171875 C 7.269531 15.253906 7.367188 15.300781 7.472656 15.300781 L 9.210938 15.300781 C 9.371094 15.300781 9.507812 15.195312 9.542969 15.039062 C 9.753906 14.148438 10.085938 12.753906 10.382812 11.488281 L 10.695312 11.667969 C 11.429688 12.046875 12.175781 12.238281 12.921875 12.238281 C 15.367188 12.238281 17.316406 10.078125 16.957031 7.566406 C 16.722656 5.898438 15.441406 4.527344 13.796875 4.175781 C 11.882812 3.761719 10.039062 4.742188 9.246094 6.371094 C 9.246094 6.371094 9.15625 6.566406 9.085938 6.761719 C 8.527344 5.796875 8.195312 4.792969 8.023438 4.066406 C 7.960938 3.800781 7.867188 3.320312 7.855469 3.289062 C 7.808594 3.152344 7.679688 3.058594 7.535156 3.058594 L 5.78125 3.058594 C 5.59375 3.058594 5.441406 3.210938 5.441406 3.398438 L 5.441406 8.261719 C 5.441406 9.0625 4.859375 9.773438 4.0625 9.851562 C 3.152344 9.941406 2.378906 9.222656 2.378906 8.328125 L 2.378906 3.398438 C 2.378906 3.210938 2.226562 3.058594 2.039062 3.058594 Z M 12.921875 6.460938 C 13.855469 6.460938 14.621094 7.222656 14.621094 8.160156 C 14.621094 9.097656 13.855469 9.859375 12.921875 9.859375 C 12.164062 9.859375 11.460938 9.402344 10.972656 9.007812 C 11.152344 8.25 11.269531 7.742188 11.273438 7.734375 C 11.464844 6.984375 12.144531 6.460938 12.921875 6.460938 Z M 12.921875 6.460938 "/>
</g>
</svg>
